<svg width="28" height="23" viewBox="0 0 28 23" fill="none" xmlns="http://www.w3.org/2000/svg">
<path fill-rule="evenodd" clip-rule="evenodd" d="M13.1116 0.296606C13.5367 -0.0988686 14.2187 -0.0988686 14.6439 0.296606L26.9346 11.7294C27.3646 12.1295 27.3703 12.7836 26.9473 13.1903C26.5241 13.5971 25.8324 13.6024 25.4023 13.2023L23.8923 11.7978V21.4364C23.8923 21.9118 23.4848 22.2973 22.9819 22.2973H4.77353C4.27073 22.2973 3.86311 21.9118 3.86311 21.4364V11.7978L2.35322 13.2023C1.92308 13.6024 1.23137 13.5971 0.808236 13.1903C0.385105 12.7836 0.390787 12.1295 0.820927 11.7294L13.1116 0.296606ZM13.8777 2.48222L22.0715 10.1041V20.5755H18.4298V14.5492C18.4298 14.0737 18.0222 13.6883 17.5194 13.6883H12.0569C11.5541 13.6883 11.1465 14.0737 11.1465 14.5492V20.5755H5.68395V10.1041L13.8777 2.48222ZM12.9673 20.5755H16.609V15.4101H12.9673V20.5755Z" fill="black"/>
</svg>
