<svg width="24" height="23" viewBox="0 0 24 23" fill="none" xmlns="http://www.w3.org/2000/svg">
<path fill-rule="evenodd" clip-rule="evenodd" d="M6.43047 0C6.93782 0 7.34911 0.39606 7.34911 0.884615V1.76923H16.5355V0.884615C16.5355 0.39606 16.9469 0 17.4541 0C17.9614 0 18.3728 0.39606 18.3728 0.884615V1.76923H21.1287C22.6507 1.76923 23.8846 2.95739 23.8846 4.42308V20.3462C23.8846 21.8118 22.6507 23 21.1287 23H2.75592C1.23386 23 0 21.8118 0 20.3462V4.42308C0 2.95739 1.23386 1.76923 2.75592 1.76923H5.51183V0.884615C5.51183 0.39606 5.92313 0 6.43047 0ZM16.5355 3.53846V4.42308C16.5355 4.91163 16.9469 5.30769 17.4541 5.30769C17.9614 5.30769 18.3728 4.91163 18.3728 4.42308V3.53846H21.1287C21.636 3.53846 22.0473 3.93452 22.0473 4.42308V7.07692H1.83728V4.42308C1.83728 3.93452 2.24857 3.53846 2.75592 3.53846H5.51183V4.42308C5.51183 4.91163 5.92313 5.30769 6.43047 5.30769C6.93782 5.30769 7.34911 4.91163 7.34911 4.42308V3.53846H16.5355ZM1.83728 8.84615V20.3462C1.83728 20.8346 2.24857 21.2308 2.75592 21.2308H21.1287C21.636 21.2308 22.0473 20.8346 22.0473 20.3462V8.84615H1.83728ZM11.0237 11.5C11.0237 11.0114 11.435 10.6154 11.9423 10.6154C12.4497 10.6154 12.8609 11.0114 12.8609 11.5C12.8609 11.9886 12.4497 12.3846 11.9423 12.3846C11.435 12.3846 11.0237 11.9886 11.0237 11.5ZM15.6169 10.6154C15.1095 10.6154 14.6982 11.0114 14.6982 11.5C14.6982 11.9886 15.1095 12.3846 15.6169 12.3846C16.1242 12.3846 16.5355 11.9886 16.5355 11.5C16.5355 11.0114 16.1242 10.6154 15.6169 10.6154ZM18.3728 11.5C18.3728 11.0114 18.7841 10.6154 19.2914 10.6154C19.7987 10.6154 20.2101 11.0114 20.2101 11.5C20.2101 11.9886 19.7987 12.3846 19.2914 12.3846C18.7841 12.3846 18.3728 11.9886 18.3728 11.5ZM19.2914 14.1538C18.7841 14.1538 18.3728 14.5499 18.3728 15.0385C18.3728 15.527 18.7841 15.9231 19.2914 15.9231C19.7987 15.9231 20.2101 15.527 20.2101 15.0385C20.2101 14.5499 19.7987 14.1538 19.2914 14.1538ZM14.6982 15.0385C14.6982 14.5499 15.1095 14.1538 15.6169 14.1538C16.1242 14.1538 16.5355 14.5499 16.5355 15.0385C16.5355 15.527 16.1242 15.9231 15.6169 15.9231C15.1095 15.9231 14.6982 15.527 14.6982 15.0385ZM11.9423 14.1538C11.435 14.1538 11.0237 14.5499 11.0237 15.0385C11.0237 15.527 11.435 15.9231 11.9423 15.9231C12.4497 15.9231 12.8609 15.527 12.8609 15.0385C12.8609 14.5499 12.4497 14.1538 11.9423 14.1538ZM7.34911 15.0385C7.34911 14.5499 7.76041 14.1538 8.26775 14.1538C8.7751 14.1538 9.18639 14.5499 9.18639 15.0385C9.18639 15.527 8.7751 15.9231 8.26775 15.9231C7.76041 15.9231 7.34911 15.527 7.34911 15.0385ZM4.5932 14.1538C4.08585 14.1538 3.67456 14.5499 3.67456 15.0385C3.67456 15.527 4.08585 15.9231 4.5932 15.9231C5.10054 15.9231 5.51183 15.527 5.51183 15.0385C5.51183 14.5499 5.10054 14.1538 4.5932 14.1538ZM3.67456 18.5769C3.67456 18.0884 4.08585 17.6923 4.5932 17.6923C5.10054 17.6923 5.51183 18.0884 5.51183 18.5769C5.51183 19.0654 5.10054 19.4615 4.5932 19.4615C4.08585 19.4615 3.67456 19.0654 3.67456 18.5769ZM8.26775 17.6923C7.76041 17.6923 7.34911 18.0884 7.34911 18.5769C7.34911 19.0654 7.76041 19.4615 8.26775 19.4615C8.7751 19.4615 9.18639 19.0654 9.18639 18.5769C9.18639 18.0884 8.7751 17.6923 8.26775 17.6923ZM11.0237 18.5769C11.0237 18.0884 11.435 17.6923 11.9423 17.6923C12.4497 17.6923 12.8609 18.0884 12.8609 18.5769C12.8609 19.0654 12.4497 19.4615 11.9423 19.4615C11.435 19.4615 11.0237 19.0654 11.0237 18.5769ZM15.6169 17.6923C15.1095 17.6923 14.6982 18.0884 14.6982 18.5769C14.6982 19.0654 15.1095 19.4615 15.6169 19.4615C16.1242 19.4615 16.5355 19.0654 16.5355 18.5769C16.5355 18.0884 16.1242 17.6923 15.6169 17.6923Z" fill="black"/>
</svg>
