<svg width="28" height="28" viewBox="0 0 28 28" fill="none" xmlns="http://www.w3.org/2000/svg">
<path fill-rule="evenodd" clip-rule="evenodd" d="M14 3.33334C8.10895 3.33334 3.33332 8.10897 3.33332 14C3.33332 19.891 8.10895 24.6667 14 24.6667C19.891 24.6667 24.6667 19.891 24.6667 14C24.6667 8.10897 19.891 3.33334 14 3.33334ZM0.666656 14C0.666656 6.63621 6.63619 0.666672 14 0.666672C21.3638 0.666672 27.3333 6.63621 27.3333 14C27.3333 21.3638 21.3638 27.3333 14 27.3333C6.63619 27.3333 0.666656 21.3638 0.666656 14ZM10.2287 10.2288C10.7494 9.70805 11.5936 9.70805 12.1143 10.2288L14 12.1144L15.8856 10.2288C16.4063 9.70807 17.2505 9.70807 17.7712 10.2288C18.2919 10.7495 18.2919 11.5937 17.7712 12.1144L15.8856 14L17.7712 15.8856C18.2919 16.4063 18.2919 17.2505 17.7712 17.7712C17.2505 18.2919 16.4062 18.2919 15.8856 17.7712L14 15.8856L12.1144 17.7712C11.5937 18.2919 10.7495 18.2919 10.2288 17.7712C9.70805 17.2505 9.70805 16.4063 10.2288 15.8856L12.1144 14L10.2287 12.1144C9.708 11.5937 9.708 10.7495 10.2287 10.2288Z" fill="#0D0C0C"/>
</svg>
