<svg width="20" height="19" viewBox="0 0 20 19" fill="none" xmlns="http://www.w3.org/2000/svg">
<path d="M17.1862 2.33461L13.1653 2.32876L13.1664 1.75136C13.1683 0.794677 12.1879 0.0177262 10.9766 0.015963L8.05234 0.0117062C6.84105 0.00994294 5.85764 0.784035 5.85578 1.74072L5.85466 2.31812L1.8338 2.31227C0.824432 2.3108 0.00488879 2.9559 0.00334304 3.75311L0.00110394 4.90791C0.000485599 5.22682 0.327273 5.48579 0.731049 5.48637L18.2766 5.51192C18.6804 5.5125 19.0082 5.25448 19.0088 4.93558L19.011 3.78078C19.0126 2.98357 18.1955 2.33608 17.1862 2.33461ZM7.31791 1.74285C7.31853 1.42455 7.6471 1.16592 8.0501 1.16651L10.9744 1.17077C11.3774 1.17135 11.7049 1.43094 11.7043 1.74923L11.7032 2.32663L7.31679 2.32025L7.31791 1.74285Z" fill="#1C0803"/>
<path d="M1.49062 6.58469C1.36186 6.58451 1.25909 6.67214 1.26502 6.77708L1.84055 16.9708C1.89374 17.9142 2.84209 18.6544 3.99932 18.6561L14.9574 18.672C16.1147 18.6737 17.0659 17.9363 17.1227 16.993L17.7378 6.80104C17.7442 6.69612 17.6417 6.60819 17.513 6.608L1.49062 6.58469ZM12.3853 8.07221C12.3859 7.74697 12.7093 7.48401 13.108 7.48459C13.5067 7.48517 13.8291 7.74907 13.8284 8.07431L13.8136 15.727C13.813 16.0522 13.4895 16.3152 13.0909 16.3146C12.6922 16.314 12.3698 16.0501 12.3704 15.7249L12.3853 8.07221ZM8.77736 8.06697C8.778 7.74173 9.10141 7.47877 9.50009 7.47935C9.89876 7.47993 10.2212 7.74383 10.2205 8.06906L10.2057 15.7217C10.205 16.047 9.88163 16.3099 9.48295 16.3094C9.08428 16.3088 8.76188 16.0449 8.76251 15.7196L8.77736 8.06697ZM5.16946 8.06172C5.17009 7.73648 5.49351 7.47352 5.89218 7.4741C6.29085 7.47468 6.61325 7.73858 6.61262 8.06382L6.59777 15.7165C6.59714 16.0417 6.27372 16.3047 5.87505 16.3041C5.47637 16.3035 5.15397 16.0396 5.15461 15.7144L5.16946 8.06172Z" fill="#1C0803"/>
</svg>
