<svg width="19" height="19" viewBox="0 0 19 19" fill="none" xmlns="http://www.w3.org/2000/svg">
<path fill-rule="evenodd" clip-rule="evenodd" d="M11.3004 1.55264C12.4232 0.429883 14.2435 0.429881 15.3663 1.55264L17.4474 3.63373C18.5701 4.75649 18.5701 6.57684 17.4474 7.69959L7.30264 17.8443C7.12292 18.024 6.87917 18.125 6.625 18.125H1.83333C1.30406 18.125 0.875 17.6959 0.875 17.1667V12.375C0.875 12.1208 0.975967 11.8771 1.15569 11.6974L11.3004 1.55264ZM14.011 2.90793C13.6367 2.53368 13.0299 2.53367 12.6557 2.90793L11.8136 3.74999L15.25 7.18637L16.0921 6.34431C16.4663 5.97005 16.4663 5.36327 16.0921 4.98902L14.011 2.90793ZM13.8947 8.54166L10.4583 5.10528L2.79167 12.7719V16.2083H6.22805L13.8947 8.54166Z" fill="#0D8336"/>
</svg>
