<svg width="28" height="21" viewBox="0 0 28 21" fill="none" xmlns="http://www.w3.org/2000/svg">
<path fill-rule="evenodd" clip-rule="evenodd" d="M1.86667 0C0.835735 0 0 0.835744 0 1.86667V18.6667C0 19.6976 0.835735 20.5333 1.86667 20.5333H26.1333C27.1643 20.5333 28 19.6976 28 18.6667V1.86667C28 0.835744 27.1643 0 26.1333 0H1.86667ZM1.86667 1.86667H26.1333V3.59322C25.9791 3.59307 25.8231 3.63535 25.6833 3.72409L14 11.1385L2.31676 3.72409C2.17693 3.63535 2.02085 3.59307 1.86667 3.59322V1.86667ZM1.86667 5.42821V18.6667H26.1333V5.42821L14.4501 12.8426C14.1754 13.0169 13.8246 13.0169 13.5499 12.8426L1.86667 5.42821Z" fill="black"/>
</svg>
