<svg width="22" height="22" viewBox="0 0 22 22" fill="none" xmlns="http://www.w3.org/2000/svg">
<path d="M22 10.7033C22 4.79203 17.208 0 11.2967 0H10.7033C4.79202 0 0 4.79203 0 10.7033C0 16.6145 4.79202 21.4066 10.7033 21.4066H11.2967C17.208 21.4066 22 16.6145 22 10.7033Z" fill="#494849"/>
<path d="M5.30141 9.31547C5.92888 9.02767 6.67952 9.32843 6.94892 9.94013C7.87834 12.0505 8.95904 13.2233 10.9417 14.2801C11.6028 14.6325 11.8499 15.4372 11.4286 16.0288C11.0843 16.5123 10.4075 16.6813 9.87959 16.3731C7.20846 14.8136 5.64263 12.6024 4.75145 10.6527C4.51702 10.1398 4.77234 9.55813 5.30141 9.31547Z" fill="white"/>
<path d="M7.51557 4.13611C8.17402 4.13354 8.67467 4.68143 8.62979 5.30184C8.55915 6.27815 8.63435 6.98254 8.83684 7.85566C8.94807 8.33527 8.69644 8.82238 8.29656 9.13612C7.75757 9.55901 7.3458 10.0979 7.01854 10.5617C6.56493 11.2046 5.00391 11.1584 4.65869 10.458C3.9492 9.01859 3.46839 6.36665 4.50444 4.57494C4.66718 4.2935 4.99485 4.14597 5.33439 4.14464L7.51557 4.13611Z" fill="white"/>
<path d="M17.5107 14.7879C17.5926 14.1709 17.0769 13.6356 16.4194 13.6031C15.3846 13.5519 14.6532 13.3967 13.7597 13.1018C13.269 12.9399 12.7266 13.1172 12.3488 13.4544C11.8394 13.9089 11.2235 14.2301 10.6965 14.4812C9.96613 14.8291 9.82695 16.2982 10.5217 16.7061C11.9495 17.5444 14.6793 18.3141 16.6873 17.5582C17.0027 17.4395 17.1972 17.15 17.2395 16.8319L17.5107 14.7879Z" fill="white"/>
</svg>
