<svg width="22" height="16" viewBox="0 0 22 16" fill="none" xmlns="http://www.w3.org/2000/svg">
<path d="M8.2086 8.18726C8.2086 8.88345 8.48516 9.55113 8.97745 10.0434C9.46973 10.5357 10.1374 10.8123 10.8336 10.8123C11.5298 10.8123 12.1975 10.5357 12.6898 10.0434C13.182 9.55113 13.4586 8.88345 13.4586 8.18726C13.4586 7.49106 13.182 6.82338 12.6898 6.3311C12.1975 5.83882 11.5298 5.56226 10.8336 5.56226C10.1374 5.56226 9.46973 5.83882 8.97745 6.3311C8.48516 6.82338 8.2086 7.49106 8.2086 8.18726ZM21.0102 7.58257C18.7883 2.9021 15.4297 0.546631 10.9274 0.546631C6.42266 0.546631 3.06641 2.9021 0.844539 7.58491C0.755418 7.77362 0.709198 7.97973 0.709198 8.18843C0.709198 8.39712 0.755418 8.60323 0.844539 8.79194C3.06641 13.4724 6.42501 15.8279 10.9274 15.8279C15.432 15.8279 18.7883 13.4724 21.0102 8.7896C21.1906 8.40991 21.1906 7.96929 21.0102 7.58257ZM10.8336 12.3123C8.55548 12.3123 6.7086 10.4654 6.7086 8.18726C6.7086 5.90913 8.55548 4.06226 10.8336 4.06226C13.1117 4.06226 14.9586 5.90913 14.9586 8.18726C14.9586 10.4654 13.1117 12.3123 10.8336 12.3123Z" fill="#B5B6B5"/>
</svg>
